<svg width="48" height="48" viewBox="0 0 48 48" fill="none" xmlns="http://www.w3.org/2000/svg">
<rect width="48" height="48" rx="24" fill="#F4EBFF"/>
<path d="M32.8401 16.61C32.3294 16.099 31.7229 15.6936 31.0555 15.4171C30.388 15.1405 29.6726 14.9982 28.9501 14.9982C28.2276 14.9982 27.5122 15.1405 26.8448 15.4171C26.1773 15.6936 25.5709 16.099 25.0601 16.61L24.0001 17.67L22.9401 16.61C21.9084 15.5783 20.5092 14.9987 19.0501 14.9987C17.5911 14.9987 16.1918 15.5783 15.1601 16.61C14.1284 17.6417 13.5488 19.041 13.5488 20.5C13.5488 21.959 14.1284 23.3583 15.1601 24.39L16.2201 25.45L24.0001 33.23L31.7801 25.45L32.8401 24.39C33.3511 23.8792 33.7565 23.2728 34.033 22.6053C34.3096 21.9379 34.4519 21.2225 34.4519 20.5C34.4519 19.7775 34.3096 19.0621 34.033 18.3946C33.7565 17.7272 33.3511 17.1208 32.8401 16.61V16.61Z" stroke="#7F56D9" stroke-width="2" stroke-linecap="round" stroke-linejoin="round"/>
</svg>
