<svg width="48" height="48" viewBox="0 0 48 48" fill="none" xmlns="http://www.w3.org/2000/svg">
<rect width="48" height="48" rx="24" fill="#F4EBFF"/>
<path d="M29 33V31C29 29.9391 28.5786 28.9217 27.8284 28.1716C27.0783 27.4214 26.0609 27 25 27H17C15.9391 27 14.9217 27.4214 14.1716 28.1716C13.4214 28.9217 13 29.9391 13 31V33M35 33V31C34.9993 30.1137 34.7044 29.2528 34.1614 28.5523C33.6184 27.8519 32.8581 27.3516 32 27.13M28 15.13C28.8604 15.3503 29.623 15.8507 30.1676 16.5523C30.7122 17.2539 31.0078 18.1168 31.0078 19.005C31.0078 19.8932 30.7122 20.7561 30.1676 21.4577C29.623 22.1593 28.8604 22.6597 28 22.88M25 19C25 21.2091 23.2091 23 21 23C18.7909 23 17 21.2091 17 19C17 16.7909 18.7909 15 21 15C23.2091 15 25 16.7909 25 19Z" stroke="#7F56D9" stroke-width="2" stroke-linecap="round" stroke-linejoin="round"/>
</svg>
